<?xml version="1.0" encoding="UTF-8" standalone="no"?>
<!DOCTYPE svg PUBLIC "-//W3C//DTD SVG 1.1//EN" "http://www.w3.org/Graphics/SVG/1.1/DTD/svg11.dtd">
<svg width="100%" height="100%" viewBox="0 0 267 267" version="1.1" xmlns="http://www.w3.org/2000/svg" xmlns:xlink="http://www.w3.org/1999/xlink" xml:space="preserve" style="fill-rule:evenodd;clip-rule:evenodd;stroke-linecap:round;">
    <g transform="matrix(3.875,0,0,3.92254,-317.937,-395.863)">
        <rect x="88.563" y="107.642" width="55.866" height="55" style="fill:white;"/>
        <path d="M145.938,164.133L87.054,164.133L87.054,106.151L145.938,106.151L145.938,164.133ZM90.072,109.133L90.072,161.151L142.92,161.151L142.92,109.133L90.072,109.133Z" style="fill:rgb(105,150,207);"/>
    </g>
    <g transform="matrix(3.875,0,0,3.92254,-317.937,-395.863)">
        <rect x="88.532" y="107.733" width="55.897" height="18.333" style="fill:rgb(106,153,206);stroke:rgb(105,150,207);stroke-width:1px;"/>
    </g>
    <g transform="matrix(3.875,0,0,3.92254,-317.937,-395.863)">
        <path d="M125.763,107.642L125.763,162.642" style="fill:none;stroke:rgb(105,150,207);stroke-width:1px;"/>
    </g>
    <g transform="matrix(3.875,0,0,3.92254,-317.937,-395.863)">
        <path d="M107.096,107.642L107.096,162.642" style="fill:none;stroke:rgb(105,150,207);stroke-width:1px;"/>
    </g>
    <g transform="matrix(3.875,0,0,3.92254,-317.937,-395.863)">
        <path d="M88.563,125.975L144.429,125.975" style="fill:none;stroke:rgb(105,150,207);stroke-width:1px;"/>
    </g>
    <g transform="matrix(3.875,0,0,3.92254,-317.937,-395.863)">
        <path d="M88.563,144.309L144.429,144.309" style="fill:none;stroke:rgb(105,150,207);stroke-width:1px;"/>
    </g>
    <g transform="matrix(3.875,0,0,3.92254,-317.937,-395.863)">
        <rect x="88.549" y="125.975" width="18.547" height="36.667" style="fill:rgb(106,153,206);stroke:rgb(105,150,207);stroke-width:1px;"/>
    </g>
    <g transform="matrix(3.875,0,0,3.92254,-317.937,-395.863)">
        <path d="M88.549,144.309L107.096,144.309" style="fill:none;stroke:white;stroke-width:1px;"/>
    </g>
    <g transform="matrix(3.875,0,0,3.92254,-317.937,-395.863)">
        <path d="M88.532,125.975L107.096,125.975" style="fill:none;stroke:white;stroke-width:1px;"/>
    </g>
    <g transform="matrix(3.875,0,0,3.92254,-317.937,-395.863)">
        <path d="M107.096,125.976L107.096,107.703" style="fill:none;stroke:white;stroke-width:1px;"/>
    </g>
    <g transform="matrix(3.875,0,0,3.92254,-317.937,-395.863)">
        <path d="M125.763,125.975L125.763,107.672" style="fill:none;stroke:white;stroke-width:1px;"/>
    </g>
    <g id="depv_path" transform="matrix(3.875,0,0,3.92254,-317.937,-395.863)">
        <path d="M151.015,168.985L82.004,168.985L81.984,101.018L151.015,100.907L151.015,168.985ZM87.016,105.98L87.034,164.015L145.985,164.015L145.985,105.885L87.016,105.98Z" style="fill:rgb(230,242,255);"/>
    </g>
</svg>
