<?xml version="1.0" encoding="UTF-8" standalone="no"?>
<!DOCTYPE svg PUBLIC "-//W3C//DTD SVG 1.1//EN" "http://www.w3.org/Graphics/SVG/1.1/DTD/svg11.dtd">
<svg width="100%" height="100%" viewBox="0 0 409 409" version="1.1" xmlns="http://www.w3.org/2000/svg" xmlns:xlink="http://www.w3.org/1999/xlink" xml:space="preserve" style="fill-rule:evenodd;clip-rule:evenodd;stroke-linejoin:round;stroke-miterlimit:1.41421;">
    <g transform="matrix(4.16667,0,0,4.16667,0,0)">
        <path d="M28.422,47.87C28.356,48.763 27.591,49.39 26.73,49.286C25.956,49.225 25.341,48.519 25.403,47.654C25.437,47.548 25.465,45.778 26.308,42.939C27.15,40.134 29,36.221 32.662,32.859C34.479,31.188 36.723,29.679 39.324,28.613C41.915,27.539 44.857,26.916 47.896,26.926C50.925,26.926 54.063,27.556 56.949,28.853C59.843,30.141 62.482,32.083 64.585,34.482C66.689,36.88 68.254,39.728 69.139,42.718C70.031,45.709 70.24,48.825 69.867,51.748C69.142,57.646 65.959,62.542 62.408,65.512C58.835,68.551 55.023,69.801 52.398,70.274C49.738,70.74 48.188,70.597 48.191,70.624C48.186,70.597 49.742,70.692 52.374,70.146C54.97,69.6 58.695,68.234 62.093,65.155C65.482,62.145 68.4,57.295 68.914,51.638C69.186,48.836 68.89,45.881 67.966,43.09C67.043,40.294 65.49,37.67 63.462,35.496C61.431,33.323 58.935,31.605 56.244,30.503C53.554,29.394 50.677,28.91 47.923,28.996C42.366,29.126 37.508,31.641 34.413,34.713C31.258,37.8 29.753,41.281 29.092,43.743C28.429,46.241 28.451,47.777 28.422,47.87Z" style="fill:rgb(222,208,110);fill-rule:nonzero;"/>
        <path d="M43.956,54.748C44.692,55.263 45.194,55.432 45.218,55.455C45.636,55.662 46.025,56.177 46.025,56.793C46.025,57.624 45.35,58.298 44.52,58.298C44.303,58.298 43.994,58.223 43.91,58.187C43.801,58.133 43.171,57.852 42.181,57.039C41.205,56.241 39.96,54.855 39.248,52.865C38.511,50.903 38.4,48.308 39.417,45.947C40.375,43.582 42.486,41.568 45.002,40.751C47.51,39.894 50.299,40.269 52.348,41.493C54.438,42.693 55.752,44.638 56.289,46.403C56.847,48.186 56.716,49.766 56.48,50.794C56.242,51.828 55.95,52.364 55.966,52.368C55.95,52.366 56.2,51.806 56.356,50.769C56.507,49.746 56.502,48.202 55.839,46.561C55.205,44.935 53.839,43.257 51.902,42.339C49.984,41.392 47.559,41.289 45.534,42.168C43.489,43.022 41.951,44.779 41.348,46.685C40.707,48.589 40.962,50.517 41.618,51.917C42.265,53.338 43.229,54.246 43.956,54.748Z" style="fill:rgb(37,138,185);fill-rule:nonzero;"/>
        <path d="M41.026,23.929C43.802,23.181 46.939,22.828 50.205,23.122C53.464,23.409 56.847,24.345 59.988,25.993C63.127,27.627 66.035,29.969 68.332,32.872C70.633,35.767 72.322,39.205 73.209,42.83C74.099,46.452 74.186,50.256 73.49,53.84C72.796,57.426 71.33,60.776 69.361,63.612C67.394,66.457 64.914,68.771 62.269,70.473C59.621,72.185 56.812,73.283 54.151,73.895C48.786,75.121 44.135,74.362 41.143,73.427C38.117,72.472 36.578,71.481 36.569,71.515C36.573,71.481 38.142,72.433 41.178,73.305C44.182,74.157 48.808,74.78 54.037,73.434C56.635,72.765 59.349,71.62 61.878,69.891C64.408,68.166 66.746,65.863 68.566,63.078C70.39,60.296 71.71,57.052 72.277,53.622C72.85,50.196 72.671,46.6 71.741,43.21C70.818,39.817 69.15,36.643 66.937,34.007C64.732,31.359 61.987,29.271 59.049,27.838C56.115,26.398 53.002,25.622 50.028,25.442C47.048,25.25 44.212,25.646 41.723,26.388C36.701,27.881 33.194,30.706 31.133,32.932C29.055,35.192 28.227,36.818 28.15,36.897C27.806,37.447 27.319,37.701 26.801,37.701C25.968,37.701 25.291,37.027 25.291,36.19C25.291,35.852 25.398,35.586 25.571,35.31C25.661,35.219 26.641,33.405 29.042,30.927C31.418,28.486 35.433,25.434 41.026,23.929Z" style="fill:rgb(99,191,200);fill-rule:nonzero;"/>
        <path d="M33.392,52.783C33.424,52.927 33.47,53.13 33.47,53.266C33.477,54.1 32.796,54.779 31.959,54.779C31.284,54.779 30.655,54.359 30.444,53.478C30.446,53.392 30.049,52.035 30.024,49.673C30.004,47.337 30.491,43.922 32.487,40.507C34.422,37.108 38.009,33.821 42.659,32.422C44.96,31.711 47.485,31.455 49.973,31.759C52.464,32.059 54.916,32.912 57.064,34.236C59.218,35.555 61.062,37.341 62.428,39.392C63.798,41.441 64.681,43.743 65.078,46.029C65.905,50.644 64.647,55.067 62.668,58.119C60.685,61.231 58.118,63.05 56.261,64.008C54.373,64.975 53.179,65.226 53.191,65.245C53.179,65.226 54.365,64.927 56.195,63.897C58.005,62.873 60.459,60.97 62.263,57.872C64.074,54.828 65.09,50.533 64.138,46.214C63.676,44.071 62.761,41.946 61.418,40.095C60.076,38.245 58.308,36.669 56.298,35.541C52.268,33.234 47.314,32.928 43.304,34.39C39.242,35.788 36.265,38.771 34.716,41.753C33.122,44.755 32.832,47.653 32.92,49.61C33.02,51.59 33.369,52.663 33.392,52.783Z" style="fill:rgb(209,191,33);fill-rule:nonzero;"/>
        <path d="M38.702,58.962C38.227,58.962 37.793,58.735 37.508,58.374C37.293,58.114 36.656,57.347 35.955,56.023C35.116,54.432 34.25,51.93 34.406,48.903C34.526,45.91 35.819,42.411 38.485,39.839C41.084,37.227 45.028,35.714 48.866,36.033C50.775,36.18 52.641,36.742 54.275,37.651C55.909,38.552 57.295,39.797 58.358,41.196C60.507,44.007 61.192,47.406 60.916,50.126C60.662,52.89 59.58,54.991 58.667,56.265C57.863,57.383 57.224,57.962 57.078,58.106C57.158,58.013 57.771,57.419 58.557,56.194C59.394,54.885 60.339,52.765 60.444,50.099C60.574,47.459 59.738,44.286 57.609,41.792C55.533,39.275 52.205,37.595 48.79,37.543C45.37,37.447 42.052,38.952 39.967,41.284C37.825,43.585 36.931,46.527 36.958,48.973C36.96,51.448 37.766,53.403 38.491,54.624C39.228,55.855 39.848,56.441 39.873,56.488C40.061,56.702 40.214,57.068 40.214,57.449C40.214,58.284 39.539,58.962 38.702,58.962Z" style="fill:rgb(41,162,190);fill-rule:nonzero;"/>
        <path d="M76.408,22.621C79.291,25.724 81.914,29.567 83.776,34.026C85.646,38.478 86.752,43.538 86.769,48.778C86.802,54.011 85.748,59.426 83.535,64.439C81.341,69.456 78.009,74.041 73.867,77.714C69.735,81.393 64.806,84.14 59.617,85.713C54.426,87.295 49.006,87.695 43.907,87.076C38.798,86.464 34.025,84.814 29.938,82.51C25.84,80.213 22.436,77.279 19.774,74.191C14.408,67.968 12.161,61.295 11.308,56.682C10.454,52.014 10.69,49.281 10.64,49.288C10.69,49.279 10.502,52.022 11.434,56.658C12.366,61.24 14.723,67.83 20.129,73.877C22.812,76.883 26.214,79.711 30.277,81.894C34.329,84.084 39.027,85.615 44.012,86.124C48.994,86.641 54.258,86.158 59.25,84.537C64.242,82.93 68.947,80.196 72.854,76.589C76.771,72.994 79.878,68.544 81.888,63.731C83.91,58.919 84.814,53.759 84.7,48.802C84.596,43.84 83.472,39.095 81.64,34.947C79.818,30.785 77.294,27.231 74.55,24.376C69.017,18.624 62.724,15.847 58.259,14.613C53.839,13.406 51.072,13.347 50.795,13.347C50.682,13.347 50.404,13.313 50.218,13.236C50.209,13.233 50.216,13.236 50.207,13.232C49.666,13.003 49.283,12.465 49.283,11.835C49.283,10.956 50.039,10.232 50.99,10.328C51.169,10.383 54.199,10.416 59.066,11.831C61.484,12.557 64.345,13.664 67.357,15.409C70.361,17.144 73.519,19.511 76.408,22.621Z" style="fill:rgb(41,162,190);fill-rule:nonzero;"/>
        <path d="M89.642,37.581C90.883,42.111 91.489,47.236 91.035,52.582C90.593,57.918 89.078,63.468 86.405,68.635C83.75,73.798 79.927,78.592 75.175,82.387C70.437,86.198 64.8,89 58.835,90.488C52.873,91.989 46.601,92.163 40.683,91.042C34.758,89.93 29.208,87.539 24.502,84.306C19.783,81.078 15.925,76.992 13.082,72.62C10.224,68.247 8.377,63.6 7.34,59.183C6.299,54.76 6.081,50.567 6.313,46.898C6.554,43.223 7.239,40.074 8.003,37.554C9.566,32.509 11.21,29.938 11.156,29.917C11.21,29.935 9.608,32.538 8.13,37.592C7.408,40.117 6.772,43.263 6.593,46.914C6.417,50.56 6.7,54.716 7.803,59.073C8.894,63.422 10.788,67.976 13.668,72.229C16.531,76.485 20.377,80.427 25.038,83.515C29.689,86.6 35.131,88.842 40.9,89.831C46.664,90.83 52.728,90.559 58.455,89.026C64.183,87.499 69.562,84.714 74.043,80.996C78.535,77.291 82.106,72.66 84.558,67.7C87.03,62.74 88.377,57.464 88.716,52.406C89.068,47.346 88.418,42.523 87.185,38.277C85.945,34.021 84.115,30.345 82.135,27.331C80.156,24.312 78.021,21.955 76.125,20.161C72.287,16.592 69.513,15.163 69.375,15.025C69.141,14.881 68.46,14.518 68.46,13.614C68.46,12.783 69.135,12.107 69.968,12.107C70.355,12.107 70.623,12.238 70.964,12.449C71.108,12.596 74.073,14.179 78.129,18.071C80.134,20.025 82.378,22.582 84.443,25.84C86.507,29.092 88.396,33.038 89.642,37.581Z" style="fill:rgb(37,138,185);fill-rule:nonzero;"/>
        <path d="M59.476,21.057C62.983,22.495 66.398,24.697 69.31,27.601C72.224,30.497 74.633,34.089 76.179,38.098C77.731,42.098 78.416,46.487 78.146,50.811C77.884,55.135 76.666,59.382 74.656,63.12C72.65,66.86 69.866,70.068 66.702,72.534C63.537,75.012 59.982,76.727 56.452,77.706C52.918,78.69 49.422,78.945 46.251,78.697C39.858,78.209 34.949,75.756 31.945,73.682C28.909,71.571 27.537,69.932 27.518,69.962C27.537,69.931 28.946,71.537 32.016,73.572C35.056,75.574 39.986,77.887 46.281,78.224C49.406,78.397 52.83,78.073 56.259,77.03C59.68,76 63.093,74.251 66.104,71.791C69.115,69.327 71.725,66.176 73.565,62.546C75.411,58.925 76.482,54.846 76.635,50.735C76.795,46.626 76.054,42.489 74.51,38.765C72.974,35.029 70.644,31.722 67.867,29.086C65.089,26.439 61.881,24.471 58.613,23.216C55.347,21.951 52.029,21.393 48.979,21.34C42.83,21.243 37.894,23.17 34.795,24.936C31.668,26.735 30.165,28.267 30.043,28.33C29.871,28.479 29.54,28.803 28.94,28.803C28.107,28.803 27.431,28.127 27.431,27.294C27.431,26.761 27.687,26.369 28.06,26.042C28.193,25.976 29.899,24.312 33.398,22.398C36.866,20.518 42.346,18.528 49.05,18.791C52.378,18.919 55.966,19.605 59.476,21.057Z" style="fill:rgb(37,138,185);fill-rule:nonzero;"/>
        <path d="M96.383,50.647C96.201,55.904 95.139,61.582 92.863,67.14C90.608,72.702 87.143,78.124 82.557,82.752C77.992,87.389 72.312,91.239 65.959,93.712C59.623,96.204 52.654,97.32 45.776,96.921C38.896,96.535 32.129,94.622 26.17,91.447C20.199,88.276 15.06,83.862 11.103,78.829C7.13,73.794 4.362,68.127 2.779,62.495C1.181,56.858 0.757,51.26 1.125,46.186C1.49,41.098 2.655,36.53 4.132,32.681C5.619,28.824 7.407,25.678 9.068,23.231C12.435,18.349 15.054,16.136 15.004,16.102C15.054,16.136 12.465,18.39 9.178,23.304C7.553,25.766 5.82,28.929 4.395,32.781C2.98,36.626 1.888,41.178 1.596,46.216C1.302,51.247 1.801,56.768 3.454,62.301C5.093,67.828 7.888,73.351 11.85,78.228C15.798,83.109 20.88,87.351 26.739,90.357C32.588,93.369 39.185,95.126 45.852,95.412C52.517,95.702 59.23,94.527 65.296,92.045C71.371,89.578 76.765,85.81 81.078,81.308C85.404,76.813 88.636,71.597 90.707,66.281C92.793,60.96 93.727,55.555 93.83,50.574C93.936,45.581 93.21,41.01 92.097,37.102C90.992,33.185 89.49,29.934 88.056,27.363C85.133,22.228 82.63,19.752 82.529,19.557C82.525,19.552 82.523,19.546 82.515,19.536C82.306,19.28 82.179,18.944 82.179,18.585C82.179,17.746 82.859,17.068 83.695,17.068C84.232,17.068 84.701,17.346 84.972,17.768C85.591,18.497 87.939,21.149 90.593,25.965C92.084,28.721 93.629,32.202 94.747,36.37C95.866,40.528 96.57,45.378 96.383,50.647Z" style="fill:rgb(45,107,173);fill-rule:nonzero;"/>
        <path d="M50.209,13.232C50.21,13.233 50.214,13.236 50.216,13.238C50.098,13.18 50.1,13.183 50.209,13.232Z" style="fill:rgb(154,200,70);fill-rule:nonzero;"/>
        <path d="M74.468,26.767C77.252,30.062 79.539,34.087 80.946,38.55C82.366,43.006 82.912,47.907 82.359,52.766C81.82,57.627 80.199,62.424 77.652,66.656C75.107,70.888 71.636,74.542 67.634,77.256C63.634,79.986 59.125,81.767 54.619,82.592C50.105,83.43 45.6,83.292 41.516,82.417C37.415,81.551 33.742,79.959 30.655,78.036C24.441,74.167 20.759,69.088 18.806,65.395C16.846,61.651 16.321,59.265 16.286,59.286C16.321,59.265 16.895,61.638 18.921,65.333C20.935,68.975 24.699,73.937 30.903,77.634C33.98,79.468 37.627,80.964 41.653,81.728C45.673,82.505 50.068,82.55 54.437,81.652C58.8,80.764 63.128,78.951 66.933,76.249C70.734,73.553 73.992,69.981 76.345,65.887C78.706,61.794 80.151,57.198 80.573,52.585C81.002,47.968 80.397,43.362 78.981,39.196C77.574,35.022 75.357,31.304 72.706,28.281C70.05,25.245 66.974,22.906 63.893,21.223C57.683,17.833 51.626,17.156 47.522,17.3C43.482,17.455 41.193,18.089 40.881,18.217C39.892,18.616 38.809,17.888 38.809,16.82C38.809,16.112 39.275,15.482 40.164,15.271C40.42,15.232 42.927,14.494 47.46,14.405C51.941,14.332 58.515,15.205 65.14,18.995C68.429,20.876 71.689,23.457 74.468,26.767Z" style="fill:rgb(33,175,196);fill-rule:nonzero;"/>
    </g>
</svg>
